# xmcd CD database file
# Copyright (C) 1995-1998 Ti Kan
#
# Track frame offsets:
#	150
#	10786
#	23747
#	36332
#	56027
#	65117
#	80147
#	94052
#	103832
#	125112
#	143062
#	166367
#	175472
#	188212
#	207187
#	221132
#	237402
#	253337
#	266047
#	277632
#	293357
#	304412
#	318537
#
# Disc length: 4354 seconds
#
# Revision: 1
# Processed by: cddbd v1.5.1PL0 Copyright (c) Steve Scherf et al.
# Submitted via: CDex 1.30Release
#
DISCID=65110017
DTITLE=CREAM - Those were the Days CD 1
DYEAR=1997
DGENRE=Blues
TTITLE0=Wrapping Paper
TTITLE1=I feel free
TTITLE2=N.S.U.
TTITLE3=Sleepy Time Time
TTITLE4=Dreaming
TTITLE5=Sweet Wine
TTITLE6=Cat's  Squirrel
TTITLE7=Four until late
TTITLE8=Rollin' and tumblin'
TTITLE9=I'm so glad
TTITLE10=Toad
TTITLE11=Lawdy Mama Version 1
TTITLE12=Strange Brew
TTITLE13=Sunshine of your Love
TTITLE14=World of Pain
TTITLE15=Dance the Night away
TTITLE16=Blue Condition
TTITLE17=Tales of brave Ulysses
TTITLE18=Swlabr
TTITLE19=We're going wrong
TTITLE20=Outside Woman Blues
TTITLE21=Take it back
TTITLE22=Mother's Lament
EXTD=YEAR: 1997 ID3G:   0
EXTT0=
EXTT1=
EXTT2=
EXTT3=
EXTT4=
EXTT5=
EXTT6=
EXTT7=
EXTT8=
EXTT9=
EXTT10=
EXTT11=
EXTT12=
EXTT13=
EXTT14=
EXTT15=
EXTT16=
EXTT17=
EXTT18=
EXTT19=
EXTT20=
EXTT21=
EXTT22=
PLAYORDER=
